<?xml version="1.0" encoding="utf-8"?>
<!DOCTYPE svg PUBLIC "-//W3C//DTD SVG 1.1//EN" "http://www.w3.org/Graphics/SVG/1.1/DTD/svg11.dtd">
<svg version="1.1" id="XMLID_1_" xmlns="http://www.w3.org/2000/svg" xmlns:xlink="http://www.w3.org/1999/xlink" x="0px" y="0px"
	 viewBox="0 0 480 480" enable-background="new 0 0 480 480" xml:space="preserve">
<g id="elliot-font-logo">
	<polygon fill="#F9304D" points="44,304 124,304 124,296 52,296 52,184 124,184 124,176 44,176 	"/>
	<rect x="224" y="176" fill="#F9304D" width="52" height="8"/>
	<rect x="224" y="256" fill="#F9304D" width="52" height="8"/>
	<polygon fill="#F9304D" points="246,192 224,192 224,200 238,200 238,240 224,240 224,248 246,248 	"/>
	<polygon fill="#F9304D" points="254,248 276,248 276,240 262,240 262,200 276,200 276,192 254,192 	"/>
	<path fill="#F9304D" d="M312,176c-13.2,0-24,10.8-24,24v80c0,13.2,10.8,24,24,24h24c13.2,0,24-10.8,24-24v-80h22v104h8V192
		h-31.3842c-1.0615-2.978-2.6951-5.6896-4.7698-8H428v8h-30v112h8V200h30v-24H312z M352,200v80c0,8.8224-7.1776,16-16,16h-24
		c-8.8224,0-16-7.1776-16-16v-80c0-8.8224,7.1776-16,16-16h24C344.8224,184,352,191.1776,352,200z"/>
	<polygon fill="#F9304D" points="60,236 100,236 100,244 60,244 60,288 124,288 124,280 68,280 68,252 108,252 108,228 68,228 
		68,200 124,200 124,192 60,192 	"/>
	<polygon fill="#F9304D" points="192,176 184,176 184,280 160,280 160,176 152,176 152,288 184,288 184,296 144,296 144,176 
		136,176 136,304 276,304 276,296 192,296 	"/>
	<polygon fill="#F9304D" points="208,176 200,176 200,288 276,288 276,280 208,280 	"/>
	<path fill="#F9304D" d="M304,200v80c0,4.4,3.6,8,8,8h24c4.4,0,8-3.6,8-8v-80c0-4.4-3.6-8-8-8h-24C307.6,192,304,195.6,304,200z
		 M312.0143,200h23.9714c0.0049,0.0042,0.0101,0.0094,0.0143,0.0143l-0.0001,79.9714c-0.0041,0.005-0.0093,0.0101-0.0142,0.0143
		h-23.9714c-0.0049-0.0042-0.0101-0.0094-0.0143-0.0143l0.0001-79.9714C312.0042,200.0093,312.0094,200.0042,312.0143,200z"/>
	<rect fill="none" width="480" height="480"/>
</g>
</svg>
